<svg xmlns="http://www.w3.org/2000/svg" viewBox="0 0 512 512" fill="none">
  <defs>
    <linearGradient id="heart-grad" x1="0%" y1="0%" x2="100%" y2="100%">
      <stop offset="0%" style="stop-color:#fda4af"/>
      <stop offset="50%" style="stop-color:#e11d48"/>
      <stop offset="100%" style="stop-color:#be123c"/>
    </linearGradient>
    <filter id="glow" x="-20%" y="-20%" width="140%" height="140%">
      <feGaussianBlur stdDeviation="8" result="coloredBlur"/>
      <feMerge>
        <feMergeNode in="coloredBlur"/>
        <feMergeNode in="SourceGraphic"/>
      </feMerge>
    </filter>
  </defs>
  <rect width="512" height="512" rx="100" fill="#fff7f8"/>
  <path 
    d="M256 420c-8.8 0-17.3-3.2-24-9.3-96-85.3-144-149.3-144-213.3 0-58.7 48-106.7 106.7-106.7 37.3 0 72 18.7 88 48 16-29.3 50.7-48 88-48 58.7 0 106.7 48 106.7 106.7 0 64-48 128-144 213.3-6.7 6.1-15.2 9.3-24 9.3z" 
    fill="url(#heart-grad)"
    filter="url(#glow)"
  />
</svg>
