<svg xmlns="http://www.w3.org/2000/svg" viewBox="0 0 152 152" fill="none">
  <defs>
    <linearGradient id="heart-grad" x1="0%" y1="0%" x2="100%" y2="100%">
      <stop offset="0%" style="stop-color:#fda4af"/>
      <stop offset="50%" style="stop-color:#e11d48"/>
      <stop offset="100%" style="stop-color:#be123c"/>
    </linearGradient>
    <filter id="glow" x="-20%" y="-20%" width="140%" height="140%">
      <feGaussianBlur stdDeviation="3" result="coloredBlur"/>
      <feMerge>
        <feMergeNode in="coloredBlur"/>
        <feMergeNode in="SourceGraphic"/>
      </feMerge>
    </filter>
  </defs>
  <rect width="152" height="152" rx="34" fill="#fff7f8"/>
  <path 
    d="M76 123.5c-2.6 0-5.2-1-7.1-2.8-28.5-25.3-42.8-44.3-42.8-63.3 0-17.4 14.3-31.7 31.7-31.7 11.1 0 21.4 5.6 26.2 14.3 4.8-8.7 15.1-14.3 26.2-14.3 17.4 0 31.7 14.3 31.7 31.7 0 19-14.3 38-42.8 63.3-1.9 1.8-4.5 2.8-7.1 2.8z" 
    fill="url(#heart-grad)"
    filter="url(#glow)"
  />
</svg>
