<svg xmlns="http://www.w3.org/2000/svg" viewBox="0 0 128 128" fill="none">
  <defs>
    <linearGradient id="heart-grad" x1="0%" y1="0%" x2="100%" y2="100%">
      <stop offset="0%" style="stop-color:#fda4af"/>
      <stop offset="50%" style="stop-color:#e11d48"/>
      <stop offset="100%" style="stop-color:#be123c"/>
    </linearGradient>
    <filter id="glow" x="-20%" y="-20%" width="140%" height="140%">
      <feGaussianBlur stdDeviation="2" result="coloredBlur"/>
      <feMerge>
        <feMergeNode in="coloredBlur"/>
        <feMergeNode in="SourceGraphic"/>
      </feMerge>
    </filter>
  </defs>
  <rect width="128" height="128" rx="28" fill="#fff7f8"/>
  <path 
    d="M64 104c-2.2 0-4.3-.8-6-2.3-24-21.3-36-37.3-36-53.3 0-14.7 12-26.7 26.7-26.7 9.3 0 18 4.7 22 12 4-7.3 12.7-12 22-12 14.7 0 26.7 12 26.7 26.7 0 16-12 32-36 53.3-1.7 1.5-3.8 2.3-6 2.3z" 
    fill="url(#heart-grad)"
    filter="url(#glow)"
  />
</svg>
