<svg xmlns="http://www.w3.org/2000/svg" viewBox="0 0 192 192" fill="none">
  <defs>
    <linearGradient id="heart-grad" x1="0%" y1="0%" x2="100%" y2="100%">
      <stop offset="0%" style="stop-color:#fda4af"/>
      <stop offset="50%" style="stop-color:#e11d48"/>
      <stop offset="100%" style="stop-color:#be123c"/>
    </linearGradient>
    <filter id="glow" x="-20%" y="-20%" width="140%" height="140%">
      <feGaussianBlur stdDeviation="4" result="coloredBlur"/>
      <feMerge>
        <feMergeNode in="coloredBlur"/>
        <feMergeNode in="SourceGraphic"/>
      </feMerge>
    </filter>
  </defs>
  <rect width="192" height="192" rx="40" fill="#fff7f8"/>
  <path 
    d="M96 156c-3.3 0-6.5-1.2-9-3.5-36-32-54-56-54-80 0-22 18-40 40-40 14 0 27 7 33 18 6-11 19-18 33-18 22 0 40 18 40 40 0 24-18 48-54 80-2.5 2.3-5.7 3.5-9 3.5z" 
    fill="url(#heart-grad)"
    filter="url(#glow)"
  />
</svg>
