<svg xmlns="http://www.w3.org/2000/svg" viewBox="0 0 384 384" fill="none">
  <defs>
    <linearGradient id="heart-grad" x1="0%" y1="0%" x2="100%" y2="100%">
      <stop offset="0%" style="stop-color:#fda4af"/>
      <stop offset="50%" style="stop-color:#e11d48"/>
      <stop offset="100%" style="stop-color:#be123c"/>
    </linearGradient>
    <filter id="glow" x="-20%" y="-20%" width="140%" height="140%">
      <feGaussianBlur stdDeviation="6" result="coloredBlur"/>
      <feMerge>
        <feMergeNode in="coloredBlur"/>
        <feMergeNode in="SourceGraphic"/>
      </feMerge>
    </filter>
  </defs>
  <rect width="384" height="384" rx="80" fill="#fff7f8"/>
  <path 
    d="M192 315c-6.6 0-13-2.4-18-7-72-64-108-112-108-160 0-44 36-80 80-80 28 0 54 14 66 36 12-22 38-36 66-36 44 0 80 36 80 80 0 48-36 96-108 160-5 4.6-11.4 7-18 7z" 
    fill="url(#heart-grad)"
    filter="url(#glow)"
  />
</svg>
