<svg xmlns="http://www.w3.org/2000/svg" viewBox="0 0 144 144" fill="none">
  <defs>
    <linearGradient id="heart-grad" x1="0%" y1="0%" x2="100%" y2="100%">
      <stop offset="0%" style="stop-color:#fda4af"/>
      <stop offset="50%" style="stop-color:#e11d48"/>
      <stop offset="100%" style="stop-color:#be123c"/>
    </linearGradient>
    <filter id="glow" x="-20%" y="-20%" width="140%" height="140%">
      <feGaussianBlur stdDeviation="3" result="coloredBlur"/>
      <feMerge>
        <feMergeNode in="coloredBlur"/>
        <feMergeNode in="SourceGraphic"/>
      </feMerge>
    </filter>
  </defs>
  <rect width="144" height="144" rx="32" fill="#fff7f8"/>
  <path 
    d="M72 117c-2.5 0-4.9-.9-6.8-2.6-27-24-40.5-42-40.5-60 0-16.5 13.5-30 30-30 10.5 0 20.3 5.3 24.8 13.5 4.5-8.2 14.3-13.5 24.8-13.5 16.5 0 30 13.5 30 30 0 18-13.5 36-40.5 60-1.9 1.7-4.3 2.6-6.8 2.6z" 
    fill="url(#heart-grad)"
    filter="url(#glow)"
  />
</svg>
